<?xml version="1.0" encoding="utf-8"?>
<!-- Generator: Adobe Illustrator 26.0.2, SVG Export Plug-In . SVG Version: 6.00 Build 0)  -->
<svg version="1.1" id="Laag_1" xmlns="http://www.w3.org/2000/svg" xmlns:xlink="http://www.w3.org/1999/xlink" x="0px" y="0px"
	 viewBox="0 0 250 250" style="enable-background:new 0 0 250 250;" xml:space="preserve">
<style type="text/css">
	.st0{fill:#1D1D1B;}
</style>
<g>
	<g>
		<path class="st0" d="M72.2,93.2H78c3.3,0,5.8,0.5,7.6,1.6c1.7,1.1,2.6,2.8,2.6,5.2c0,1.7-0.3,2.9-0.9,3.9s-1.4,1.7-2.3,2.3
			c0.4,1,1.2,1.9,2.1,2.6s1.9,1.3,2.8,1.6l0.1,0.1l-2.1,3c-1.4,0-2.9-0.8-4.3-1.9s-2.5-2.7-3.1-4.1c-1.1,0.2-2.2,0.3-3.4,0.3v5.5
			h-4.7V93.2H72.2z M76.9,103.4h0.6c4.2,0,6-0.9,6-3.1c0-0.9-0.3-1.6-1.2-2c-0.9-0.4-2.3-0.7-4.4-0.7H77L76.9,103.4L76.9,103.4z"/>
		<path class="st0" d="M117,108c1.9,0.8,3.5,1.4,5.6,1.4c1.2,0,2.1-0.2,2.7-0.6c0.6-0.3,0.8-0.8,0.8-1.3c0-0.7-0.6-1.2-1.5-1.6
			c-0.5-0.2-1-0.4-1.6-0.6c-1.2-0.4-2.4-0.8-3.6-1.5c-1.2-0.6-2.1-1.5-2.7-2.8c-0.3-0.6-0.4-1.4-0.4-2.3c0-2.3,1-3.7,2.5-4.6
			s3.3-1.2,5.1-1.2c2.1,0,3.9,0.4,5.1,0.9v4.1V98c-0.4-0.1-1-0.3-1.9-0.4s-1.9-0.2-2.8-0.2s-1.7,0.1-2.3,0.3
			c-0.6,0.2-1.1,0.6-1.1,1.2c0,0.7,0.6,1.2,1.6,1.7c0.5,0.2,1,0.4,1.6,0.6c1.2,0.4,2.5,0.9,3.8,1.5c1.2,0.6,2.2,1.5,2.8,2.6
			c0.3,0.6,0.4,1.3,0.4,2.1c0,2.1-1.1,3.7-2.7,4.7c-1.6,1.1-3.8,1.7-5.9,1.7c-2,0-4-0.5-5.5-1.5C117,112.3,117,108,117,108z"/>
		<polygon class="st0" points="175.3,93.3 175.3,97.7 166.1,97.7 166.1,101.3 175.3,101.3 175.3,105.5 166.1,105.5 166.1,109.1 
			175.3,109.1 175.3,113.5 161.5,113.5 161.5,93.3 		"/>
		<path class="st0" d="M50,118.3h6c1.2,0,2.5,0.1,3.7,0.4s2.3,0.8,3,1.6c0.8,0.8,1.3,1.9,1.3,3.4c0,1-0.3,1.9-0.7,2.6
			s-1,1.2-1.5,1.6c2.1,0.9,3.1,2.3,3.1,4.7c0,1.8-0.6,3.1-1.5,3.9c-1,0.9-2.3,1.4-3.9,1.6c-1.6,0.3-3.4,0.3-5.2,0.3H50
			C50,138.4,50,118.3,50,118.3z M54.6,121.7v4.7c1.8,0,3,0,3.8-0.3s1.1-0.8,1.1-1.9s-0.4-1.8-1.1-2.1
			C57.6,121.7,56.4,121.7,54.6,121.7L54.6,121.7z M54.6,130.1v5.1c1.9,0,3.4,0,4.4-0.4c1-0.3,1.5-0.9,1.5-2.1c0-1.2-0.5-1.8-1.4-2.2
			s-2.2-0.4-3.9-0.4L54.6,130.1L54.6,130.1z"/>
		<path class="st0" d="M110.5,118.4v11c0,3.6-1,6-2.5,7.5c-1.6,1.5-3.7,2-6.1,2c-2.7,0-4.8-0.7-6.3-2.3c-1.5-1.5-2.3-3.9-2.3-7.2
			v-11H98v10.8c0,1.8,0.2,3.1,0.8,4c0.6,0.9,1.5,1.3,3,1.3c2.9,0,4.1-1.9,4.1-5.2v-10.9C105.9,118.4,110.5,118.4,110.5,118.4z"/>
		<path class="st0" d="M139.6,133c1.9,0.8,3.5,1.4,5.6,1.4c1.2,0,2.1-0.2,2.7-0.6s0.8-0.8,0.8-1.3c0-0.7-0.6-1.2-1.5-1.6
			c-0.5-0.2-1-0.4-1.6-0.6c-1.2-0.4-2.4-0.8-3.6-1.5c-1.2-0.6-2.1-1.5-2.7-2.8c-0.3-0.6-0.4-1.4-0.4-2.3c0-2.3,1-3.7,2.5-4.6
			s3.3-1.2,5.1-1.2c2.1,0,3.9,0.4,5.1,0.9v4.1v0.1c-0.4-0.1-1-0.3-1.9-0.4s-1.9-0.2-2.8-0.2c-0.9,0-1.7,0.1-2.3,0.3
			c-0.6,0.2-1.1,0.6-1.1,1.2c0,0.7,0.6,1.2,1.6,1.7c0.5,0.2,1,0.4,1.6,0.6c1.2,0.4,2.5,0.9,3.8,1.5c1.2,0.6,2.2,1.5,2.8,2.6
			c0.3,0.6,0.4,1.3,0.4,2.1c0,2.1-1.1,3.7-2.7,4.7c-1.6,1.1-3.8,1.7-5.9,1.7c-2,0-4-0.5-5.5-1.5L139.6,133L139.6,133z"/>
		<polygon class="st0" points="188.8,118.3 188.8,134.1 197.1,134.1 197.1,138.5 184.1,138.5 184.1,118.3 		"/>
		<path class="st0" d="M97.7,186l-1.2,3.6h-4.9l6.9-20.2h6.8l7,20.2h-5l-1.2-3.6H97.7z M104.4,181.6l-2.6-7.6l-2.6,7.6H104.4z"/>
		<path class="st0" d="M141.7,184.1c1.9,0.8,3.5,1.4,5.6,1.4c1.2,0,2.1-0.2,2.7-0.6c0.6-0.3,0.8-0.8,0.8-1.3c0-0.7-0.6-1.2-1.5-1.6
			c-0.5-0.2-1-0.4-1.6-0.6c-1.2-0.4-2.4-0.8-3.6-1.5c-1.2-0.6-2.1-1.5-2.7-2.8c-0.3-0.6-0.4-1.4-0.4-2.3c0-2.3,1-3.7,2.5-4.6
			c1.5-0.9,3.3-1.2,5.1-1.2c2.1,0,3.9,0.4,5.1,0.9v4.1v0.1c-0.4-0.1-1-0.3-1.9-0.4c-0.9-0.1-1.9-0.2-2.8-0.2c-0.9,0-1.7,0.1-2.3,0.3
			s-1.1,0.6-1.1,1.2c0,0.7,0.6,1.2,1.6,1.7c0.5,0.2,1,0.4,1.6,0.6c1.2,0.4,2.5,0.9,3.8,1.5c1.2,0.6,2.2,1.5,2.8,2.6
			c0.3,0.6,0.4,1.3,0.4,2.1c0,2.1-1.1,3.7-2.7,4.7c-1.6,1.1-3.8,1.7-5.9,1.7c-2,0-4-0.5-5.5-1.5L141.7,184.1L141.7,184.1z"/>
		<path class="st0" d="M72,144.2h7.4c3.3,0,6,1.1,7.8,3c1.9,1.8,2.9,4.3,2.9,7.1c0,2.5-0.8,5-2.6,6.9c-1.7,1.9-4.4,3.2-8,3.2H72
			C72,164.4,72,144.2,72,144.2z M76.7,160h2c2.5,0,4.2-0.8,5.3-1.9c1.1-1.1,1.6-2.5,1.6-3.8c0-1.4-0.7-2.8-1.9-3.9
			c-1.2-1.1-3-1.8-5.2-1.8h-1.7V160H76.7z"/>
		<polygon class="st0" points="119.9,164.4 115.3,164.4 115.3,144.2 119.9,144.2 127.5,156.2 127.5,144.2 132.1,144.2 132.1,164.4 
			127.5,164.4 119.9,152.4 		"/>
		<polygon class="st0" points="176.7,144.2 176.7,148.6 170.7,148.6 170.7,164.4 166,164.4 166,148.6 160.1,148.6 160.1,144.2 		"/>
		<polygon class="st0" points="64.3,79.5 62.4,81.9 47.4,76.5 49.2,74.3 60.5,78.5 54.1,68.2 55.9,66 		"/>
		<polygon class="st0" points="62.9,59.6 70.8,69 75.6,65 77.2,66.9 70.5,72.6 60.9,61.3 		"/>
		<path class="st0" d="M76.7,49.3l2.7-1.5l11.9,10.6l-2.4,1.4l-2.4-2.2l-5,2.8l0.6,3.2L79.7,65L76.7,49.3z M84.5,55.8l-4.6-4.1
			l1.1,6.1L84.5,55.8z"/>
		<path class="st0" d="M94.3,41.4l2.9-0.9l9.5,12.8l-2.7,0.8l-1.9-2.6l-5.5,1.7l-0.1,3.3l-2.7,0.8L94.3,41.4z M100.6,49.3l-3.7-5
			l-0.2,6.2L100.6,49.3z"/>
		<polygon class="st0" points="113.2,52.4 110.6,52.6 109.2,37.8 111.8,37.6 118.9,46.9 118,37 120.6,36.8 122,51.6 119.3,51.8 
			112.3,42.6 		"/>
		<path class="st0" d="M128.7,36.9l4.9,0.6c2.4,0.3,4.3,1.4,5.5,2.8c1.2,1.5,1.7,3.4,1.5,5.4c-0.2,1.8-1.1,3.6-2.5,4.8
			s-3.5,1.9-6.1,1.6l-5-0.6L128.7,36.9z M129.9,49.4l2,0.2c2.1,0.2,3.5-0.3,4.5-1.1s1.4-2,1.5-3.1c0.1-1.2-0.2-2.5-1-3.5
			s-2.2-1.8-4-2l-1.8-0.2L129.9,49.4z"/>
		<polygon class="st0" points="156.9,43 156.1,45.4 150.2,43.5 149.1,46.9 154.8,48.8 154,51.2 148.3,49.3 147.1,52.8 153,54.7 
			152.2,57.1 143.8,54.3 148.5,40.2 		"/>
		<path class="st0" d="M163.7,45.9l3.7,2.1c0.9,0.5,1.7,1.1,2.4,1.9c0.7,0.8,1.2,1.6,1.4,2.7c0.2,1,0,2.1-0.7,3.4
			c-0.5,0.9-1.1,1.5-1.9,1.9c-0.7,0.4-1.5,0.5-2.4,0.5c-0.1,0.7,0.1,1.7,0.3,2.6c0.3,0.9,0.7,1.8,1.1,2.4l-0.1,0.1l-1.9,1
			c-0.6-0.4-1.1-1-1.5-1.8c-0.4-0.8-0.6-1.7-0.7-2.5c-0.1-0.9-0.1-1.7,0-2.3c-0.5-0.2-0.9-0.4-1.4-0.7l-1.4-0.8l-2.2,3.9l-2.3-1.3
			L163.7,45.9z M162.2,54.1l1.5,0.8c1.3,0.7,2.3,1,3.1,0.9s1.3-0.6,1.6-1.3c0.4-0.7,0.5-1.4,0.2-2.1c-0.3-0.7-1-1.4-2.4-2.2
			l-1.5-0.8L162.2,54.1z"/>
		<polygon class="st0" points="186.5,61.5 184.8,63.4 180.1,59.5 177.8,62.3 182.4,66.1 180.7,68.1 176.1,64.2 173.8,67 178.6,70.9 
			176.9,72.9 170.2,67.2 179.7,55.8 		"/>
		<polygon class="st0" points="181.9,78.1 180.2,76.1 191.8,66.7 193.5,68.8 189.7,79.8 197.3,73.6 199,75.6 187.5,85 185.8,83 
			189.6,71.9 		"/>
		<polygon class="st0" points="101.6,67.2 101.6,69.7 95,69.7 95,73.4 101.3,73.4 101.3,75.9 95,75.9 95,82 92.4,82 92.4,67.2 		"/>
		<polygon class="st0" points="114.3,67.2 114.3,69.7 108.1,69.7 108.1,73.4 114.1,73.4 114.1,75.9 108.1,75.9 108.1,79.5 
			114.3,79.5 114.3,82 105.4,82 105.4,67.2 		"/>
		<polygon class="st0" points="127.3,67.2 127.3,69.7 121.1,69.7 121.1,73.4 127.1,73.4 127.1,75.9 121.1,75.9 121.1,79.5 
			127.3,79.5 127.3,82 118.5,82 118.5,67.2 		"/>
		<path class="st0" d="M138.7,69.7c-0.7-0.1-1.7-0.2-2.7-0.2c-0.9,0-1.6,0.1-2.1,0.3c-0.5,0.2-0.8,0.5-0.8,1.1c0,0.5,0.3,1,0.8,1.4
			s1.2,0.7,1.8,1c0.3,0.1,0.6,0.3,0.9,0.4c0.6,0.2,1.2,0.5,1.9,1s1.2,1.1,1.5,1.9c0.1,0.4,0.2,0.8,0.2,1.3c0,1.5-0.9,2.6-2.1,3.4
			c-1.2,0.7-2.8,1.1-4.3,1.1c-1.2,0-2.3-0.2-3.3-0.7v-2.5l0,0c0.4,0.2,1,0.3,1.6,0.5c0.6,0.1,1.3,0.2,1.9,0.2c1,0,1.9-0.2,2.5-0.6
			c0.6-0.3,0.9-0.8,0.9-1.4c0-0.5-0.3-1-0.8-1.4s-1.1-0.7-1.8-1c-0.3-0.1-0.7-0.3-1-0.4c-0.6-0.2-1.2-0.5-1.9-1s-1.2-1.1-1.5-1.9
			c-0.2-0.4-0.2-0.9-0.2-1.4c0-1.4,0.7-2.4,1.8-3.1c1.1-0.6,2.5-0.9,3.8-0.9c1,0,1.9,0.1,2.7,0.3L138.7,69.7z"/>
		<polygon class="st0" points="154.2,67.2 154.2,69.7 149.7,69.7 149.7,82 147,82 147,69.7 142.5,69.7 142.5,67.2 		"/>
		<path class="st0" d="M51,88.7c-0.4,0-0.7-0.1-1-0.4s-0.4-0.6-0.4-1c0-0.1,0-0.2,0-0.3c0-0.1,0-0.2,0.1-0.3c0-0.1,0.1-0.2,0.1-0.2
			c0.1-0.1,0.1-0.1,0.2-0.2c0.3-0.3,0.8-0.5,1.3-0.4c0.1,0,0.2,0,0.3,0.1c0.1,0,0.2,0.1,0.2,0.1c0.1,0,0.1,0.1,0.2,0.2
			c0.1,0.1,0.1,0.1,0.2,0.2c0,0.1,0.1,0.2,0.1,0.2c0,0.1,0.1,0.2,0.1,0.3c0,0.1,0,0.2,0,0.3c0,0.1,0,0.2,0,0.3
			c0,0.1-0.1,0.2-0.1,0.3c0,0.1-0.1,0.2-0.1,0.2c0,0.1-0.1,0.1-0.2,0.2c-0.1,0.1-0.1,0.1-0.2,0.2c-0.1,0.1-0.2,0.1-0.2,0.1
			c-0.1,0-0.2,0.1-0.3,0.1C51.2,88.7,51.1,88.7,51,88.7"/>
		<path class="st0" d="M122.1,213.2c0-0.8,0.6-1.4,1.4-1.4s1.4,0.6,1.4,1.4c0,0.8-0.6,1.4-1.4,1.4S122.1,214,122.1,213.2
			 M127.7,213.1c-0.1-0.8,0.5-1.4,1.3-1.5c0.8,0,1.4,0.5,1.5,1.3c0,0.8-0.5,1.4-1.3,1.5h-0.1C128.4,214.4,127.8,213.8,127.7,213.1
			 M117.7,214.4c-0.8-0.1-1.4-0.7-1.3-1.5s0.7-1.4,1.5-1.3c0.8,0.1,1.4,0.7,1.3,1.5C119.2,213.8,118.5,214.4,117.7,214.4
			L117.7,214.4z M133.4,212.6c-0.1-0.8,0.4-1.5,1.2-1.6s1.5,0.4,1.6,1.2s-0.4,1.5-1.2,1.6c-0.1,0-0.1,0-0.2,0
			C134.1,213.9,133.5,213.3,133.4,212.6 M112,213.8c-0.8-0.1-1.3-0.8-1.2-1.6c0.1-0.8,0.8-1.3,1.6-1.2c0.8,0.1,1.3,0.8,1.2,1.6
			c-0.1,0.7-0.7,1.2-1.4,1.2C112.1,213.8,112,213.8,112,213.8 M139,211.8c-0.2-0.8,0.3-1.5,1.1-1.7s1.5,0.3,1.7,1.1
			s-0.3,1.5-1.1,1.7c-0.1,0-0.2,0-0.3,0C139.7,212.9,139.1,212.4,139,211.8 M106.3,212.9c-0.8-0.2-1.3-0.9-1.1-1.7
			c0.2-0.8,0.9-1.3,1.7-1.1c0.8,0.2,1.3,0.9,1.1,1.7c-0.1,0.7-0.7,1.1-1.4,1.1C106.5,212.9,106.4,212.9,106.3,212.9 M144.5,210.6
			c-0.2-0.7,0.2-1.5,1-1.7s1.5,0.2,1.7,1s-0.2,1.5-1,1.7c-0.1,0-0.3,0.1-0.4,0.1C145.3,211.6,144.7,211.2,144.5,210.6 M100.7,211.5
			c-0.7-0.2-1.2-1-1-1.7c0.2-0.8,1-1.2,1.7-1c0.8,0.2,1.2,1,1,1.7c-0.2,0.6-0.7,1-1.4,1C100.9,211.6,100.8,211.5,100.7,211.5
			 M150,209c-0.3-0.7,0.1-1.5,0.9-1.8c0.7-0.3,1.5,0.1,1.8,0.9c0.3,0.7-0.1,1.5-0.9,1.8c-0.2,0.1-0.3,0.1-0.5,0.1
			C150.7,209.9,150.2,209.5,150,209 M95.2,209.8L95.2,209.8c-0.7-0.3-1.1-1.1-0.9-1.8c0.3-0.7,1.1-1.1,1.8-0.9
			c0.7,0.3,1.1,1.1,0.9,1.8c-0.2,0.6-0.7,0.9-1.3,0.9C95.5,209.9,95.4,209.8,95.2,209.8 M155.3,207c-0.3-0.7,0-1.5,0.7-1.8
			s1.5,0,1.9,0.7c0.3,0.7,0,1.5-0.7,1.8c-0.2,0.1-0.4,0.1-0.6,0.1C156,207.8,155.5,207.5,155.3,207 M89.8,207.7
			c-0.7-0.3-1-1.1-0.7-1.9c0.3-0.7,1.1-1,1.8-0.7c0.7,0.3,1,1.1,0.7,1.8c-0.2,0.5-0.7,0.9-1.3,0.9C90.2,207.8,90,207.8,89.8,207.7
			 M160.5,204.7c-0.4-0.7-0.1-1.5,0.6-1.9c0.7-0.4,1.5-0.1,1.9,0.6c0.4,0.7,0.1,1.5-0.6,1.9c-0.2,0.1-0.4,0.2-0.6,0.2
			C161.2,205.4,160.7,205.1,160.5,204.7 M84.6,205.2L84.6,205.2c-0.7-0.4-1-1.2-0.6-1.9s1.2-1,1.9-0.6c0.7,0.4,1,1.2,0.6,1.9
			c-0.2,0.5-0.7,0.8-1.3,0.8C85.1,205.4,84.8,205.3,84.6,205.2 M165.5,202c-0.4-0.7-0.2-1.5,0.5-1.9s1.5-0.2,1.9,0.5
			s0.2,1.5-0.5,1.9c-0.2,0.1-0.5,0.2-0.7,0.2C166.2,202.7,165.7,202.4,165.5,202 M79.6,202.4c-0.7-0.4-0.9-1.3-0.5-1.9
			c0.4-0.7,1.3-0.9,1.9-0.5l0,0c0.7,0.4,0.9,1.3,0.5,1.9c-0.3,0.4-0.7,0.7-1.2,0.7C80.1,202.6,79.8,202.6,79.6,202.4 M170.3,199
			c-0.5-0.6-0.3-1.5,0.3-2c0.6-0.4,1.5-0.3,2,0.4c0.4,0.6,0.3,1.5-0.4,2c-0.2,0.2-0.5,0.3-0.8,0.3C171,199.6,170.5,199.4,170.3,199
			 M74.8,199.3c-0.6-0.4-0.8-1.3-0.3-2c0.4-0.6,1.3-0.8,2-0.3c0.6,0.4,0.8,1.3,0.4,2c-0.3,0.4-0.7,0.6-1.2,0.6
			C75.3,199.5,75,199.5,74.8,199.3 M174.9,195.7c-0.5-0.6-0.4-1.5,0.2-2c0.6-0.5,1.5-0.4,2,0.2c0.5,0.6,0.4,1.5-0.2,2
			c-0.3,0.2-0.6,0.3-0.9,0.3C175.6,196.2,175.2,196,174.9,195.7 M70.2,195.8L70.2,195.8c-0.6-0.5-0.7-1.4-0.2-2s1.4-0.7,2-0.2
			s0.7,1.4,0.2,2c-0.3,0.3-0.7,0.5-1.1,0.5S70.4,196,70.2,195.8 M179.2,192c-0.5-0.6-0.5-1.5,0.1-2s1.5-0.5,2,0.1s0.5,1.5-0.1,2
			c-0.3,0.2-0.6,0.4-1,0.4C179.9,192.5,179.5,192.3,179.2,192 M65.8,192.1c-0.6-0.5-0.6-1.4-0.1-2s1.4-0.6,2-0.1s0.6,1.4,0.1,2
			c-0.3,0.3-0.7,0.5-1,0.5C66.4,192.4,66.1,192.3,65.8,192.1 M183.3,188.1c-0.6-0.5-0.6-1.4,0-2c0.5-0.6,1.4-0.6,2-0.1s0.6,1.4,0,2
			c-0.3,0.3-0.6,0.4-1,0.4C184,188.5,183.6,188.4,183.3,188.1 M61.7,188L61.7,188c-0.5-0.6-0.5-1.5,0-2c0.6-0.5,1.5-0.5,2,0.1l0,0
			c0.5,0.6,0.5,1.5,0,2c-0.3,0.3-0.6,0.4-1,0.4S62,188.3,61.7,188 M187.2,184c-0.6-0.5-0.7-1.4-0.2-2s1.4-0.7,2-0.2s0.7,1.4,0.2,2
			c-0.3,0.3-0.7,0.5-1.1,0.5C187.8,184.3,187.4,184.2,187.2,184 M57.9,183.7c-0.5-0.6-0.4-1.5,0.2-2c0.6-0.5,1.5-0.4,2,0.2
			c0.5,0.6,0.4,1.5-0.2,2c-0.3,0.2-0.6,0.3-0.9,0.3C58.5,184.2,58.1,184,57.9,183.7 M190.7,179.5c-0.6-0.5-0.8-1.3-0.3-2
			c0.5-0.6,1.3-0.8,2-0.3c0.6,0.5,0.8,1.3,0.3,2c-0.3,0.4-0.7,0.6-1.1,0.6C191.3,179.8,191,179.7,190.7,179.5 M54.3,179.1
			c-0.5-0.6-0.3-1.5,0.3-2s1.5-0.3,2,0.3s0.3,1.5-0.3,2c-0.2,0.2-0.5,0.3-0.8,0.3C55,179.7,54.6,179.5,54.3,179.1 M194,174.9
			c-0.7-0.4-0.9-1.3-0.4-1.9c0.4-0.7,1.3-0.9,1.9-0.4c0.7,0.4,0.9,1.3,0.5,1.9c-0.3,0.4-0.7,0.7-1.2,0.7
			C194.5,175.1,194.2,175,194,174.9 M51.1,174.4L51.1,174.4c-0.4-0.7-0.2-1.5,0.5-1.9s1.5-0.2,1.9,0.5s0.2,1.5-0.4,1.9
			c-0.2,0.1-0.5,0.2-0.7,0.2C51.8,175,51.4,174.8,51.1,174.4 M196.9,170c-0.7-0.4-0.9-1.2-0.6-1.9c0.4-0.7,1.2-0.9,1.9-0.6
			c0.7,0.4,0.9,1.2,0.6,1.9c-0.3,0.5-0.7,0.7-1.2,0.7C197.3,170.2,197.1,170.1,196.9,170 M48.2,169.4c-0.4-0.7-0.1-1.5,0.6-1.9
			c0.7-0.4,1.5-0.1,1.9,0.6c0.4,0.7,0.1,1.5-0.6,1.9c-0.2,0.1-0.4,0.2-0.7,0.2C49,170.1,48.5,169.8,48.2,169.4 M199.5,165
			c-0.7-0.3-1-1.2-0.7-1.9l0,0c0.3-0.7,1.2-1,1.9-0.7s1,1.2,0.7,1.9c-0.2,0.5-0.7,0.8-1.3,0.8C199.9,165.1,199.7,165.1,199.5,165
			 M45.7,164.2L45.7,164.2c-0.3-0.7,0-1.5,0.7-1.9c0.7-0.3,1.5,0,1.9,0.7c0.3,0.7,0,1.5-0.7,1.9c-0.2,0.1-0.4,0.1-0.6,0.1
			C46.4,165,45.9,164.7,45.7,164.2 M201.7,159.8c-0.7-0.3-1.1-1.1-0.8-1.8s1.1-1.1,1.8-0.8s1.1,1.1,0.8,1.8
			c-0.2,0.6-0.7,0.9-1.3,0.9C202,159.9,201.9,159.9,201.7,159.8 M43.5,158.8c-0.3-0.7,0.1-1.5,0.8-1.8s1.5,0.1,1.8,0.8
			s-0.1,1.5-0.8,1.8c-0.2,0.1-0.3,0.1-0.5,0.1C44.3,159.8,43.7,159.4,43.5,158.8 M203.6,154.4c-0.7-0.2-1.2-1-0.9-1.7
			c0.2-0.7,1-1.2,1.7-1s1.2,1,1,1.7l0,0c-0.2,0.6-0.7,1-1.3,1C203.9,154.5,203.7,154.5,203.6,154.4 M41.7,153.4
			c-0.2-0.7,0.2-1.5,1-1.7c0.7-0.2,1.5,0.2,1.7,1c0.2,0.7-0.2,1.5-0.9,1.7c-0.1,0-0.3,0.1-0.4,0.1C42.5,154.4,41.9,154,41.7,153.4
			 M205.1,149c-0.8-0.2-1.2-0.9-1.1-1.7c0.2-0.8,0.9-1.2,1.7-1.1c0.8,0.2,1.2,0.9,1.1,1.7c-0.1,0.7-0.7,1.1-1.4,1.1
			C205.3,149,205.2,149,205.1,149 M40.3,147.8c-0.2-0.8,0.3-1.5,1.1-1.7s1.5,0.3,1.7,1.1s-0.3,1.5-1.1,1.7c-0.1,0-0.2,0-0.3,0
			C41,148.9,40.4,148.4,40.3,147.8 M206.2,143.4c-0.8-0.1-1.3-0.8-1.2-1.6s0.8-1.3,1.6-1.2s1.3,0.8,1.2,1.6
			c-0.1,0.7-0.7,1.2-1.4,1.2C206.4,143.5,206.3,143.4,206.2,143.4 M39.2,142.1L39.2,142.1c-0.1-0.8,0.4-1.5,1.2-1.6s1.5,0.4,1.6,1.2
			s-0.4,1.5-1.2,1.6c-0.1,0-0.1,0-0.2,0C39.9,143.3,39.3,142.8,39.2,142.1 M207,137.8c-0.8-0.1-1.4-0.7-1.3-1.5
			c0.1-0.8,0.7-1.4,1.5-1.3c0.8,0.1,1.4,0.7,1.3,1.5c-0.1,0.7-0.7,1.3-1.4,1.3H207 M38.6,136.4L38.6,136.4c-0.1-0.8,0.5-1.5,1.3-1.5
			c0.8-0.1,1.4,0.5,1.5,1.3s-0.5,1.5-1.3,1.5H40C39.2,137.7,38.6,137.1,38.6,136.4 M207.4,132.2c-0.8,0-1.4-0.7-1.4-1.4
			c0-0.8,0.6-1.4,1.4-1.4c0.8,0,1.4,0.7,1.4,1.4C208.8,131.5,208.2,132.2,207.4,132.2L207.4,132.2z M38.3,130.6
			c0-0.8,0.6-1.4,1.4-1.4c0.8,0,1.4,0.6,1.4,1.4c0,0.8-0.6,1.4-1.4,1.4l0,0C38.9,132,38.3,131.4,38.3,130.6 M205.9,125.2
			c0-0.8,0.6-1.4,1.3-1.5c0.8,0,1.4,0.6,1.5,1.3c0,0.8-0.6,1.4-1.3,1.5h-0.1C206.5,126.5,205.9,125.9,205.9,125.2 M39.7,126.4
			c-0.8,0-1.4-0.7-1.3-1.5c0-0.8,0.7-1.4,1.5-1.3c0.8,0,1.4,0.7,1.3,1.5C41.2,125.8,40.5,126.4,39.7,126.4L39.7,126.4z M205.4,119.6
			L205.4,119.6c-0.1-0.8,0.5-1.5,1.2-1.6c0.8-0.1,1.5,0.5,1.6,1.2c0.1,0.8-0.5,1.5-1.2,1.6c-0.1,0-0.1,0-0.2,0
			C206.1,120.8,205.5,120.3,205.4,119.6 M40.1,120.7c-0.8-0.1-1.3-0.8-1.2-1.6c0.1-0.8,0.8-1.3,1.6-1.2c0.8,0.1,1.3,0.8,1.2,1.6
			c-0.1,0.7-0.7,1.2-1.4,1.2C40.2,120.7,40.2,120.7,40.1,120.7 M204.6,114.1L204.6,114.1c-0.1-0.8,0.4-1.5,1.1-1.6
			c0.8-0.1,1.5,0.4,1.6,1.1l0,0c0.1,0.8-0.4,1.5-1.1,1.6c-0.1,0-0.2,0-0.3,0C205.3,115.2,204.7,114.8,204.6,114.1 M40.9,115.1
			c-0.8-0.1-1.3-0.9-1.1-1.6c0.1-0.8,0.9-1.3,1.6-1.1c0.8,0.1,1.3,0.9,1.1,1.6c-0.1,0.7-0.7,1.1-1.4,1.1
			C41.1,115.1,41,115.1,40.9,115.1 M203.4,108.6L203.4,108.6c-0.2-0.8,0.3-1.5,1-1.7c0.8-0.2,1.5,0.3,1.7,1c0.2,0.8-0.3,1.5-1,1.7
			c-0.1,0-0.2,0-0.4,0C204.1,109.7,203.5,109.3,203.4,108.6 M42,109.5c-0.8-0.2-1.2-1-1-1.7s1-1.2,1.7-1c0.8,0.2,1.2,1,1,1.7
			c-0.2,0.6-0.7,1.1-1.4,1.1C42.3,109.6,42.1,109.6,42,109.5 M201.8,103.3c-0.2-0.7,0.2-1.5,0.9-1.8c0.7-0.2,1.5,0.1,1.8,0.9
			c0.2,0.7-0.2,1.5-0.9,1.8c-0.1,0-0.3,0.1-0.5,0.1C202.5,104.3,202,103.9,201.8,103.3 M43.5,104.1c-0.7-0.2-1.1-1-0.9-1.8
			c0.2-0.7,1-1.1,1.8-0.9c0.7,0.2,1.1,1,0.9,1.8c-0.2,0.6-0.8,1-1.3,1C43.8,104.1,43.7,104.1,43.5,104.1 M199.9,98.1L199.9,98.1
			c-0.3-0.7,0-1.5,0.8-1.8c0.7-0.3,1.5,0,1.8,0.8c0.3,0.7,0,1.5-0.8,1.8c-0.2,0.1-0.4,0.1-0.5,0.1C200.6,98.9,200.1,98.6,199.9,98.1
			 M45.4,98.7c-0.7-0.3-1.1-1.1-0.8-1.8c0.3-0.7,1.1-1.1,1.8-0.8c0.7,0.3,1.1,1.1,0.8,1.8c-0.2,0.5-0.7,0.9-1.3,0.9
			C45.8,98.8,45.6,98.8,45.4,98.7 M197.6,93L197.6,93c-0.3-0.7-0.1-1.5,0.6-1.9c0.7-0.3,1.5-0.1,1.9,0.6l0,0
			c0.3,0.7,0.1,1.5-0.6,1.9c-0.2,0.1-0.4,0.1-0.6,0.1C198.3,93.8,197.8,93.5,197.6,93 M47.7,93.5c-0.7-0.3-1-1.2-0.6-1.9
			c0.3-0.7,1.2-1,1.9-0.6c0.7,0.3,1,1.2,0.6,1.9c-0.2,0.5-0.7,0.8-1.3,0.8C48.1,93.7,47.9,93.6,47.7,93.5"/>
		<path class="st0" d="M196.1,88.7c-0.4,0-0.7-0.1-1-0.4s-0.4-0.6-0.4-1c0-0.1,0-0.2,0-0.3c0-0.1,0.1-0.2,0.1-0.3
			c0-0.1,0.1-0.2,0.1-0.2c0-0.1,0.1-0.1,0.2-0.2c0.3-0.3,0.8-0.5,1.3-0.4c0.1,0,0.2,0,0.3,0.1c0.1,0,0.2,0.1,0.2,0.1
			c0.1,0,0.1,0.1,0.2,0.2c0.1,0.1,0.1,0.1,0.2,0.2c0.1,0.1,0.1,0.2,0.1,0.2c0,0.1,0.1,0.2,0.1,0.3c0,0.1,0,0.2,0,0.3
			c0,0.1,0,0.2,0,0.3c0,0.1,0,0.2-0.1,0.3c0,0.1-0.1,0.2-0.1,0.2c-0.1,0.1-0.1,0.1-0.2,0.2c-0.1,0.1-0.1,0.1-0.2,0.2
			c-0.1,0.1-0.2,0.1-0.2,0.1c-0.1,0-0.2,0.1-0.3,0.1C196.3,88.7,196.2,88.7,196.1,88.7"/>
	</g>
</g>
</svg>
